<?xml version="1.0" encoding="UTF-8" standalone="no"?>
<!-- Created with Inkscape (http://www.inkscape.org/) -->

<svg
   width="323.81754mm"
   height="196.26463mm"
   viewBox="0 0 323.81754 196.26463"
   version="1.1"
   id="svg5"
   inkscape:version="1.1.1 (3bf5ae0d25, 2021-09-20)"
   sodipodi:docname="no_data.svg"
   xmlns:inkscape="http://www.inkscape.org/namespaces/inkscape"
   xmlns:sodipodi="http://sodipodi.sourceforge.net/DTD/sodipodi-0.dtd"
   xmlns="http://www.w3.org/2000/svg"
   xmlns:svg="http://www.w3.org/2000/svg">
  <sodipodi:namedview
     id="namedview7"
     pagecolor="#ffffff"
     bordercolor="#666666"
     borderopacity="1.0"
     inkscape:pageshadow="2"
     inkscape:pageopacity="0.0"
     inkscape:pagecheckerboard="0"
     inkscape:document-units="mm"
     showgrid="false"
     fit-margin-top="0"
     fit-margin-left="0"
     fit-margin-right="0"
     fit-margin-bottom="0"
     inkscape:zoom="0.5052024"
     inkscape:cx="588.8729"
     inkscape:cy="438.43814"
     inkscape:window-width="1920"
     inkscape:window-height="991"
     inkscape:window-x="2991"
     inkscape:window-y="245"
     inkscape:window-maximized="1"
     inkscape:current-layer="layer1" />
  <defs
     id="defs2" />
  <g
     inkscape:label="Layer 1"
     inkscape:groupmode="layer"
     id="layer1"
     transform="translate(37.850161,-52.219304)">
    <g
       id="g832"
       transform="matrix(0.03527778,0,0,-0.03527778,-66.441426,340.85155)">
      <path
         d="m 9498.8,5240.73 c -6.8,-46 -12.5,-74.6 -13.9,-81.4 -135.2,-637.3 -574.7,-1176.5 -1163.7,-1592 -10.1,-7.1 -20.3,-14.2 -30.5,-21.3 -11.7,-8.09 -23.5,-16.2 -35.3,-24 -84.2,-57.2 -171.3,-111.8 -260.8,-163.9 -3,-1.8 -6.1,-3.5 -9.1,-5.19 -18.8,-11.01 -37.6,-21.7 -56.6,-32.21 -41.2,-23.3 -82.9,-45.8 -125,-67.79 -81.8,-43.01 -165.3,-83.81 -250.2,-122.5 -21.8,-10 -43.7,-19.91 -65.7,-29.51 -295.5,-130.4 -606.2,-235.9 -919.9,-314.6 -103.8,-26.1 -207.8,-49.2 -311.8,-69.3 -275.9,-53.5 -551,-85.7 -817,-95.4 -206.6,-7.6 -427.3,-2.3 -654.7,16.8 -90.2,7.6 -181.4,17.2 -273.3,29.2 -176.1,22.7 -354.4,53.5 -531.7,92.81 -17.4,3.79 -34.7,7.79 -52.1,11.79 -21.1,4.9 -42.1,9.9 -63.2,15 -104.8,25.5 -209,54.1 -312,85.71 -22,6.59 -43.9,13.49 -65.7,20.49 -3.8,1.2 -7.5,2.41 -11.2,3.6 -6.8,2.3 -13.7,4.5 -20.6,6.8 -129.5,42.5 -256.8,90 -380.2,142.7 -7.3,3.1 -14.5,6.2 -21.8,9.4 -33.9,14.6 -67.5,29.6 -100.7,45.1 -101.1,47 -199.1,97.6 -293.5,151.91 -61.7,35.4 -121.7,72.39 -179.9,111.19 -10.8,7.11 -21.6,14.3 -32.3,21.6 -35.5,24.3 -70.3,49.1 -104.4,74.71 -37.2,27.69 -73.5,56.29 -108.8,85.59 -302.5,250.9 -533.3,556.91 -649.5,922.5 -10.2,32.31 -19.7,65.1 -28.2,98.6 -58.1,226.5 -77.5,478.31 -54.7,726.9 39.4,432.1 206.1,854.1 517.6,1114.8 261.4,218.9 608.4,310.6 933.7,341.3 2.1,0.31 4.3,0.4 6.5,0.6 421.7,38.9 805.5,-24.3 916.4,-44.6 386,-70.9 735.8,-223.7 1316.3,-158.4 46.6,5.3 206.5,24.5 498,104.6 6.3,1.7 12.7,3.51 19.2,5.3 28.1,7.81 55.5,15.71 82.2,23.61 827.2,243.69 1019.4,511.79 1508.4,636.09 33.9,8.7 69.1,16.5 105.2,23.6 53.8,10.4 109.8,19.1 167.5,25.6 476.4,53.7 1064.6,-36.6 1463,-405.4 390.3,-361.3 484.5,-883.9 491.8,-1273.6 3.7,-193.9 -14.2,-355 -27.8,-446.8"
         style="fill:#eaf0fa;fill-opacity:1;fill-rule:nonzero;stroke:none"
         id="path834" />
      <path
         d="m 8290.7,3546.04 c -585.08,-404.91 -1312.45,-689.39 -2034.36,-829.05 -275.9,-53.42 -551,-85.62 -817.05,-95.36 -206.63,-7.56 -427.31,-2.26 -654.73,16.76 -300.59,25.13 -612.99,74.1 -920.28,148.88 -130.99,31.88 -261.02,68.42 -388.84,109.78 -6.86,2.24 -13.77,4.44 -20.63,6.74 -129.54,42.54 -256.78,90.06 -380.21,142.73 -7.29,3.1 -14.52,6.21 -21.76,9.37 -33.9,14.62 -67.5,29.68 -100.76,45.16 -264.55,122.96 -509.01,270.71 -718.91,444.99 H 8290.7"
         style="fill:#dde1f4;fill-opacity:1;fill-rule:nonzero;stroke:none"
         id="path836" />
      <path
         d="m 9498.84,5240.74 c -6.8,-46.03 -12.54,-74.63 -13.98,-81.38 C 9214.31,3883.39 7723.94,3000.92 6256.34,2716.99 c 0,5.03 -0.16,10.12 -0.64,15.15 -3.21,34.24 -19.18,65.84 -26.84,99.38 -30.27,131.42 71.36,258.92 186.59,329 115.19,70.13 249.82,107.31 356.27,190.13 -55.18,42.11 -11.57,130.03 38.2,178.35 118.13,114.65 261.01,203.69 416,259.25 -24.97,195.27 189.28,379.19 378.45,325.03 2.46,94.66 80.46,181.77 174.32,194.52 93.86,12.75 192.28,-50.3 219.93,-140.9 7.98,68.36 27.37,135.33 56.89,197.48 25.87,54.42 106.88,50.24 125.9,-6.91 0.1,-0.43 0.21,-0.8 0.37,-1.19 62.74,126.28 260,155.58 356.75,52.99 -33.75,125.69 117.65,256.83 237.23,205.51 -57.33,84.22 -72.86,201.87 -18.76,288.22 54.17,86.31 185.64,120.71 264.34,56.05 -55.93,95.36 14.52,237.64 124.29,250.98 56.04,6.81 111.65,-14.78 168.06,-16.23 28.23,-0.69 59.04,7.13 82.88,22.24 31.39,19.82 67.66,28.17 102.27,24.7"
         style="fill:#d0d5ef;fill-opacity:1;fill-rule:nonzero;stroke:none"
         id="path838" />
      <path
         d="m 7569.22,6865.36 c 0,-247.62 -351.87,-448.95 -789.03,-453.5 -5.1,-0.11 -10.13,-0.11 -15.22,-0.11 -31.23,0 -61.99,1.07 -92.25,3 -128.36,-124.45 -311.53,-164.73 -475.52,-114.32 -44.58,13.71 -87.7,34.07 -127.99,61.33 -2.35,1.56 -4.6,3.17 -6.91,4.78 0.54,-3.27 1.02,-6.59 1.39,-9.91 v -0.06 c 1.23,-10.07 1.82,-20.2 1.82,-30.37 0,-116.53 -77.89,-222.77 -205.93,-303.07 -11.95,-7.56 -24.38,-14.78 -37.18,-21.81 -98.53,-54.16 -221.58,-94.18 -358.84,-114.17 l -0.05,-0.04 c -14.52,-2.09 -29.04,-3.97 -43.62,-5.58 -12.05,-1.39 -24.16,-2.57 -36.26,-3.64 h -0.06 c -111.48,-9.59 -223.77,-6.06 -334.67,10.71 0,0.06 0,0.06 -0.06,0.06 -3.16,0.48 -6.27,0.96 -9.43,1.5 -136.93,22.12 -259.02,64.18 -355.51,120.32 -98.74,57.38 -170.79,129.49 -204.81,209.91 -13.13,-0.48 -26.26,-0.86 -39.54,-0.86 -11.73,0 -23.41,0.21 -34.98,0.64 -49.46,1.72 -97.29,7.13 -142.83,15.8 -9.38,1.77 -18.64,3.7 -27.8,5.79 h -0.06 c -86.36,19.34 -163.51,50.52 -226.19,90.38 -16.5,-14.04 -33.7,-27.11 -51.59,-39.27 -23.62,-16.13 -49.18,-31.23 -76.39,-45.27 -9.01,-4.66 -18.22,-9.22 -27.65,-13.55 -11.62,-5.52 -23.57,-10.77 -35.73,-15.81 -0.06,0 -0.06,0 -0.11,0 -20.52,-8.63 -41.68,-16.55 -63.65,-23.95 h -0.05 c -113.47,-38.08 -244.94,-59.89 -385.03,-59.89 h -4.61 c -227.37,0.8 -410.8,186.39 -410.8,413.75 v 201.97 c 2.14,0.27 4.33,0.43 6.48,0.59 421.73,38.9 805.53,-24.27 916.43,-44.62 386,-70.83 735.78,-223.62 1316.3,-158.31 46.62,5.24 206.48,24.48 498.03,104.57 6.32,1.72 12.69,3.49 19.18,5.3 28.07,7.82 55.5,15.71 82.23,23.58 827.13,243.71 1019.4,511.78 1508.32,636.13 33.96,8.62 69.11,16.5 105.22,23.57 3.1,-60.8 -6.43,-122.25 -28.77,-180.33 109.82,-72.16 180.06,-163.93 191.9,-264.81 1.23,-10.07 1.82,-20.25 1.82,-30.43"
         style="fill:#d0d5ef;fill-opacity:1;fill-rule:nonzero;stroke:none"
         id="path840" />
      <path
         d="m 6334.94,6681.23 c 0,0 -0.16,-0.54 -0.43,-1.62 -2.36,-8.02 -13.5,-45.8 -34.24,-106.76 -14.62,-42.91 -34.01,-97.35 -58.55,-160.99 -13.29,-34.56 -28.13,-71.79 -44.52,-111.43 -83.79,-202.94 -208.3,-467.49 -379.95,-744.04 -5.89,-9.53 -11.89,-19.12 -17.95,-28.71 -51.91,-82.29 -108,-165.44 -168.43,-248.26 0,-0.11 -0.05,-0.17 -0.11,-0.22 -3.86,-5.3 -7.77,-10.61 -11.68,-15.85 -4.61,-6.27 -9.26,-12.59 -13.98,-18.86 -5.89,-7.93 -11.84,-15.86 -17.79,-23.73 -0.05,0 -0.05,-0.06 -0.1,-0.11 -123.82,-163.56 -264.76,-324.39 -424.26,-472.31 -385.08,-357.12 -685.15,-742.9 -900.14,-1086.74 -0.05,-0.06 -0.05,-0.06 -0.05,-0.11 -6,-9.54 -11.9,-19.07 -17.74,-28.51 -64.98,-105.53 -121.88,-206.89 -170.68,-301.94 0,-0.05 0,-0.1 0,-0.1 -3.27,-6.27 -6.43,-12.49 -9.54,-18.65 0,0 0,0 -0.05,-0.05 -110.36,-218.05 -177.17,-401.64 -200.47,-524.97 -130.99,31.88 -261.02,68.42 -388.84,109.78 -6.86,2.24 -13.77,4.44 -20.63,6.74 -129.54,42.54 -256.78,90.06 -380.21,142.73 -7.29,3.1 -14.52,6.21 -21.76,9.37 -33.9,14.62 -67.5,29.68 -100.76,45.16 v 867.84 c 269.58,387.78 665.76,827.13 1245.96,1257.97 74.36,55.18 106.39,150.92 80.1,239.75 -0.12,0.42 -0.28,0.91 -0.38,1.33 -16.72,56.3 -37.4,122.42 -60.38,187.51 -12.97,36.8 -28.82,72.33 -47.36,106.34 0,0 -0.05,0.06 -0.05,0.11 -2.68,5.09 -5.52,10.13 -8.42,15.11 -2.83,4.98 -5.72,9.97 -8.73,14.89 0,0.06 0,0.06 -0.05,0.11 -42.38,70.08 -96.27,132.92 -159.71,185.8 -68.62,57.22 -155.47,132.97 -240.11,216.11 -0.11,0.11 -0.27,0.27 -0.38,0.37 h -0.05 c -32.63,31.99 -64.93,65.04 -95.74,98.58 -33.26,35.68 -64.82,72.92 -94.61,111.54 -10.71,13.83 -21.16,27.86 -31.39,42.06 -46.39,65.67 -80.09,129.22 -92.09,185.68 0,0 104.3,-18.42 214.77,49.08 l 102.43,-126.38 82.99,-102.43 44.3,-54.65 c 10.29,-12.7 27.44,-18.43 42.81,-12.91 14.2,5.09 23.63,17.67 25.02,31.87 l 8.04,80.52 2.84,28.61 4.5,44.9 c 0,0 21.91,-19.5 64.18,-36.75 33.69,-13.77 80.3,-26.14 139.08,-26.05 5.19,0 10.5,0.11 15.91,0.33 0.43,0 0.86,0.06 1.29,0.06 0.05,0 0.05,0 0.1,0 28.24,1.18 59.09,5.25 92.42,13.34 16.87,-58.73 36.96,-116.53 60.1,-173.05 18.6,-45 40.72,-91.23 65.1,-128.47 16.6,-25.5 34.34,-46.77 52.71,-60.54 28.08,-21.05 68.26,-72.27 111.28,-134.68 0,-0.05 0.05,-0.05 0.05,-0.05 5.25,-7.61 10.5,-15.38 15.8,-23.31 24.22,-36 48.97,-74.74 72.65,-112.99 38.25,-61.66 73.72,-121.93 99.92,-167.2 18.64,-32.25 59.89,-43.29 92.14,-24.65 5.3,3.11 10.18,6.86 14.46,11.25 15.06,15.43 32.48,33.28 51.76,53.15 0,0.06 0.05,0.11 0.11,0.16 l 14.24,14.68 0.06,0.05 c 31.72,32.74 67.82,70.24 106.77,111.07 0.97,1.01 1.93,2.03 2.89,3.05 72.97,76.55 155.63,164.46 237.33,253.94 17.68,19.33 35.31,38.79 52.83,58.18 140.95,156.38 271.99,311 336.87,411.71 0,0.06 0.05,0.06 0.05,0.11 4.18,6.42 8.04,12.69 11.68,18.7 4.13,6.8 7.82,13.34 11.15,19.55 6.32,1.72 12.69,3.49 19.18,5.3 28.07,7.82 55.5,15.71 82.23,23.58 h 544.21"
         style="fill:#dde1f4;fill-opacity:1;fill-rule:nonzero;stroke:none"
         id="path842" />
      <path
         d="m 5318.59,5166.2 c -104.76,-27.67 -213.1,-56.25 -317.12,-92.99 -262.73,-92.73 -448.26,-226.91 -551.44,-398.82 -61.88,-103.12 -93.85,-218.54 -119.19,-327.9 -54.17,-233.74 -84.33,-472.41 -89.98,-712.28 -0.03,-1.26 0.97,-2.28 2.22,-2.31 0.79,-0.01 1.53,0.39 1.95,1.06 5.84,9.48 11.75,18.99 17.71,28.53 0.12,0.38 0.22,0.74 0.34,1.11 7.28,228.7 36.96,456.15 88.62,679.06 24.94,107.65 56.33,221.13 116.7,321.7 100.53,167.52 282.27,298.62 540.18,389.64 103.22,36.43 211.12,64.93 315.47,92.47 86.48,22.84 175.19,46.31 262.13,74.48 0.38,0.27 0.73,0.52 1.12,0.8 5.98,7.9 11.92,15.82 17.82,23.74 0.74,0.98 0.54,2.39 -0.46,3.13 -0.59,0.44 -1.36,0.56 -2.06,0.32 -93.69,-31.41 -190.15,-56.98 -284.01,-81.74"
         style="fill:#d0d5ef;fill-opacity:1;fill-rule:nonzero;stroke:none"
         id="path844" />
      <path
         d="m 4074.34,3331.04 c 0,-0.05 0,-0.1 0,-0.1 -0.06,-0.21 -0.11,-0.38 -0.21,-0.53 -3.01,-5.84 -6,-11.74 -8.95,-17.58 -0.11,-0.16 -0.21,-0.37 -0.38,-0.54 0,0 0,0 -0.05,-0.05 -0.11,-0.11 -0.21,-0.21 -0.38,-0.32 -1.07,-0.64 -2.41,-0.32 -3.1,0.75 -13.08,20.78 -26.95,41.1 -41.63,60.91 -26.36,35.68 -62.79,80.53 -110.79,110.9 -65.79,41.63 -151.19,51.11 -225.55,27.64 -27,-8.73 -48.16,-29.95 -56.89,-56.95 -57.92,-176.31 -117.7,-364.99 -150.97,-558.12 -6.86,2.24 -13.77,4.44 -20.63,6.74 36.27,209 103.13,412.14 165.12,600.3 l 2.08,3.64 2.84,2.3 c 89.74,50.63 208.46,47.63 295.46,-7.5 50.95,-32.25 89.04,-79.07 116.58,-116.25 12.91,-17.47 25.28,-35.31 37.12,-53.57 0.33,-0.49 0.43,-1.13 0.33,-1.67"
         style="fill:#6475c3;fill-opacity:1;fill-rule:nonzero;stroke:none"
         id="path846" />
      <path
         d="m 6107.52,6616.35 c -30.22,-106.13 -66.87,-210.11 -109.57,-311.48 h -0.04 c -40.56,-96.49 -86.8,-190.56 -138.33,-281.74 -36.81,-65.31 -76.4,-129.06 -118.62,-191.26 -6.37,-9.33 -12.75,-18.64 -19.18,-28.02 -45.91,-66.75 -93.38,-135.81 -116.09,-213.28 -12.64,-44.41 -17.62,-90.7 -14.73,-136.82 0,-0.27 0.11,-0.54 0.21,-0.81 0.49,-1.18 1.82,-1.66 3,-1.18 74.84,33.17 148.18,69.11 220.13,107.8 0.7,0.37 1.56,0.32 2.25,-0.06 1.08,-0.7 1.4,-2.03 0.7,-3.11 -5.89,-9.53 -11.89,-19.12 -17.95,-28.71 -0.26,-0.27 -0.53,-0.54 -0.85,-0.81 -66.81,-35.19 -134.74,-67.98 -203.85,-98.3 -0.91,-0.43 -1.45,-1.35 -1.34,-2.36 5.95,-49.77 18.64,-98.53 37.72,-144.87 0.26,-0.64 0.21,-1.39 -0.11,-1.92 0,-0.11 -0.05,-0.17 -0.11,-0.22 -3.86,-5.3 -7.77,-10.61 -11.68,-15.85 -0.21,-0.33 -0.53,-0.6 -0.91,-0.76 -1.12,-0.48 -2.52,0.06 -3,1.19 -20.95,48.64 -35.14,99.86 -42.22,152.36 0,0.21 -0.05,0.43 -0.16,0.58 -0.48,1.13 -1.76,1.66 -2.89,1.19 -221.26,-95.21 -452.54,-165.06 -689.49,-208.25 -11.47,-2.04 -22.93,-4.13 -34.45,-6.1 -102,-18.01 -207.49,-36.59 -293.42,-92.64 -124.83,-81.42 -186.87,-225.44 -246.87,-364.72 -24.22,-56.25 -49.29,-114.44 -78.27,-168.17 -93.28,-173.04 -236.42,-312.93 -374.91,-448.2 -110.52,-108.01 -224.79,-219.71 -313.09,-347.59 -62.3,-90.32 -112.82,-190.61 -161.68,-287.47 -52.07,-103.29 -105.86,-210.12 -174.38,-305.91 -34.82,-48.7 -78.49,-98.09 -128.74,-142.34 -7.29,3.1 -14.52,6.21 -21.76,9.37 52.14,44.73 97.29,95.47 133.03,145.4 67.56,94.51 121.03,200.58 172.67,303.12 49.18,97.56 100.07,198.44 163.24,289.99 89.41,129.6 204.49,242.05 315.71,350.75 137.31,134.15 279.28,272.9 371.05,443.06 28.5,52.88 53.36,110.62 77.42,166.45 61.28,142.24 124.66,289.3 254.84,374.21 89.64,58.45 197.32,77.41 301.41,95.79 11.52,1.99 22.98,4.02 34.34,6.11 238.03,43.35 470.33,113.84 692.34,210.01 0.85,0.38 1.39,1.23 1.34,2.19 -4.35,51.7 0.74,103.78 14.94,153.66 23.68,80.73 72.11,151.24 118.94,219.32 6.42,9.33 12.8,18.66 19.12,27.97 34.88,51.38 67.99,103.88 99.17,157.4 41.24,70.67 79.18,143.15 113.78,217.19 10.19,21.81 20.1,43.71 29.63,65.79 h 0.05 c 47.69,109.66 88.13,222.54 121.03,337.94 0.32,1.18 1.55,1.88 2.78,1.51 l 16.29,-4.61 c 1.18,-0.33 1.87,-1.61 1.56,-2.79"
         style="fill:#d0d5ef;fill-opacity:1;fill-rule:nonzero;stroke:none"
         id="path848" />
      <path
         d="m 4985.92,5748.45 c 30.79,-2.8 63.33,-5 96.55,-5 61.02,0 124.29,7.41 182.99,31.99 77.15,32.29 140.58,92.32 196.54,145.29 l 141.68,134.08 c 34.94,33.07 74.55,70.56 94.82,119.35 19.17,46.07 19.05,97.64 18.94,143.14 -0.24,99.95 -0.61,212.72 -35.22,315.01 -0.39,1.18 -1.66,1.83 -2.84,1.44 -0.52,-0.17 -0.95,-0.52 -1.23,-0.98 -3.6,-6 -7.48,-12.23 -11.65,-18.69 -0.35,-0.56 -0.45,-1.23 -0.26,-1.87 29.22,-94.92 29.53,-196.48 29.77,-294.98 0.1,-43.46 0.22,-92.74 -17.3,-134.86 -18.53,-44.58 -56.39,-80.4 -89.77,-112 l -141.68,-134.09 c -57.32,-54.22 -116.56,-110.3 -190.09,-141.09 -86.34,-36.15 -184.6,-33.12 -269.32,-25.41 -18.09,1.65 -37.08,3.67 -56.16,6.84 -0.74,0.12 -1.48,-0.12 -2,-0.66 l -14.23,-14.67 c -0.85,-0.9 -0.82,-2.33 0.08,-3.2 0.32,-0.3 0.72,-0.5 1.15,-0.58 23.56,-4.49 47.05,-7.04 69.23,-9.06"
         style="fill:#d0d5ef;fill-opacity:1;fill-rule:nonzero;stroke:none"
         id="path850" />
      <path
         d="m 2952.08,3644.1 c 0.01,-1.26 1.03,-2.28 2.3,-2.27 0.33,0 0.66,0.08 0.96,0.23 113.14,54.2 208.9,138.9 276.53,244.57 22.85,36.28 42.36,75.05 61.23,112.54 21.51,42.76 43.77,87 70.82,127.01 78.58,116.22 201.06,201.49 309.11,276.74 l 260.86,181.62 c 74.68,51.96 167.6,116.69 211.28,211.98 53.45,116.67 19.89,248.34 -46.38,352.03 -0.68,1.06 -2.1,1.36 -3.15,0.66 -0.36,-0.22 -0.64,-0.54 -0.84,-1.04 -4.23,-3.22 -7.62,-5.8 -11.85,-9.02 -1.56,-0.45 -2.11,-2.16 -1.33,-3.37 62.37,-98.04 93.93,-221.51 44.06,-330.34 -41.25,-89.97 -131.49,-152.82 -204.03,-203.32 L 3660.79,4420.5 c -109.6,-76.3 -233.82,-162.79 -314.64,-282.33 -27.81,-41.14 -50.39,-86 -72.21,-129.37 -18.64,-37.05 -37.91,-75.35 -60.21,-110.76 -63.96,-100 -154,-180.63 -260.42,-233.2 -0.76,-0.38 -1.23,-1.15 -1.23,-1.99 v -18.75"
         style="fill:#d0d5ef;fill-opacity:1;fill-rule:nonzero;stroke:none"
         id="path852" />
      <path
         d="m 4308.79,6140.94 c 75.13,-73.39 175,-109.5 273.07,-142.76 1.2,-0.38 2.48,0.27 2.86,1.46 0.21,0.67 0.1,1.39 -0.28,1.98 -5.31,7.89 -10.59,15.65 -15.84,23.27 -0.38,0.29 -0.73,0.55 -1.1,0.84 -91.59,31.52 -176.99,65.32 -243.72,130.54 -91.92,89.82 -124.68,215.1 -134.62,350.02 -0.1,1.21 -1.13,2.12 -2.34,2.07 -5.75,-0.24 -11.37,-0.34 -16.9,-0.35 -1.24,0 -2.25,-1.01 -2.24,-2.25 0,-0.05 0,-0.11 0,-0.16 10.15,-139.67 44.24,-269.98 141.11,-364.66"
         style="fill:#d0d5ef;fill-opacity:1;fill-rule:nonzero;stroke:none"
         id="path854" />
      <path
         d="m 3754.62,6193.3 c 60.23,3.64 120.43,6.36 180.61,8.17 0.36,-0.07 0.7,-0.15 1.05,-0.22 86.18,-41.84 150.28,-103.3 182.08,-175.52 27.25,-61.87 31.47,-132.5 33.3,-193.84 0.38,-12.97 0.67,-25.96 0.85,-38.95 0.1,-0.37 0.2,-0.7 0.3,-1.05 5.95,-9.84 11.66,-19.83 17.13,-29.97 0.59,-1.09 1.96,-1.5 3.05,-0.92 0.73,0.4 1.19,1.16 1.19,1.99 -0.05,23.22 -0.41,46.41 -1.08,69.57 -1.88,63.36 -6.3,136.45 -35.1,201.85 -28.62,64.99 -81.44,121.61 -151.89,164.19 -1.07,0.63 -1.42,2 -0.79,3.07 0.39,0.66 1.09,1.08 1.86,1.1 14.62,0.29 29.23,0.53 43.83,0.71 34.9,0.43 65.89,-0.38 91.75,-14.33 26.94,-14.56 45.35,-42.43 61.88,-69.7 79.55,-131.26 141.44,-272.42 184.09,-419.85 16.14,-55.83 28.44,-119.22 -2.68,-166.13 -19.41,-29.23 -53.3,-47.09 -83.2,-62.84 -1.69,-0.89 -3.39,-1.78 -5.08,-2.68 0.13,-0.43 0.27,-0.88 0.39,-1.31 0.66,-2.23 1.28,-4.47 1.86,-6.69 l 15.37,-6.94 c 30.11,15.88 66.7,35.75 88.51,68.58 36,54.19 22.95,123.39 5.44,183.93 -43.17,149.24 -105.82,292.14 -186.35,425 -18.06,29.81 -38.35,60.34 -70.02,77.44 -30.35,16.41 -64.29,17.38 -102.18,16.93 -29.93,-0.36 -59.89,-0.96 -89.88,-1.79 -0.34,0.07 -0.67,0.14 -1,0.21 -8.25,3.88 -16.61,7.66 -25.23,11.19 -81.38,33.36 -168.31,48.05 -253.82,59.94 l -1.99,-3.79 c 6.07,-6.58 12.2,-13.15 18.38,-19.7 0.45,-0.23 0.86,-0.45 1.31,-0.68 67.55,-9.82 135.5,-22.18 199.93,-44.91 1.17,-0.43 1.77,-1.73 1.34,-2.9 -0.31,-0.85 -1.11,-1.44 -2.02,-1.48 -46.52,-1.81 -93.04,-4.21 -139.59,-7.18 -1.25,-0.08 -2.2,-1.18 -2.11,-2.44 0.04,-0.54 0.27,-1.05 0.66,-1.44 5.37,-5.36 10.76,-10.69 16.17,-15.98 0.44,-0.44 1.05,-0.67 1.68,-0.64"
         style="fill:#d0d5ef;fill-opacity:1;fill-rule:nonzero;stroke:none"
         id="path856" />
      <path
         d="m 7686.28,7133.23 c 0,-87.06 -43.51,-168.38 -118.88,-237.44 -141.54,-129.7 -395.53,-216.18 -685.37,-216.18 h -0.48 c -22.29,0 -44.42,0.6 -66.28,1.62 -8.57,0.37 -17.03,0.86 -25.49,1.39 -92.42,-89.63 -213.12,-135.49 -334.46,-135.49 -52.29,0 -104.68,8.52 -155.05,25.72 -42.16,14.35 -82.88,34.87 -120.86,61.55 2.09,-13.34 3.16,-26.84 3.21,-40.34 0,-84.91 -41.4,-164.36 -113.41,-232.3 -1.82,-1.71 -3.59,-3.42 -5.46,-5.13 h -0.06 v -0.06 c -19.82,-18.11 -41.73,-35.41 -65.74,-51.7 h -0.04 c -10.35,-7.07 -21.01,-13.93 -32.05,-20.57 h -0.05 c -53.2,-32.04 -114.49,-59.73 -182.15,-82.02 -26.89,-8.9 -54.75,-16.93 -83.57,-24 -8.58,-2.15 -17.26,-4.18 -25.99,-6.11 h -0.05 c -91.51,-20.42 -191.26,-31.67 -295.73,-31.67 -34.39,0 -68.3,1.24 -101.58,3.6 -241.08,17.14 -448.89,94.45 -574.73,204.43 l -0.06,0.06 v 0.05 c -48.27,42.22 -84.48,89.3 -105.81,139.62 -13.12,-0.49 -26.19,-0.86 -39.48,-0.86 -90.48,-0.38 -180.55,12.54 -267.23,38.46 -57.96,17.31 -113.3,42.22 -164.68,74.15 -19.18,-16.28 -39.32,-31.34 -60.38,-45.16 -10.87,-7.18 -22.18,-14.15 -33.8,-20.84 -22.5,-13.13 -46.39,-25.4 -71.52,-36.76 -37.45,-17.03 -77.69,-32.03 -120.17,-44.83 -6.75,-2.04 -13.55,-4.03 -20.41,-5.95 -83.79,-22.93 -169.67,-37.02 -256.3,-42.06 -25.82,-1.55 -51.7,-2.25 -77.63,-2.14 -60.7,0 -119.73,4.07 -176.36,11.79 -179.69,24.48 -318.71,163.29 -349.62,336.65 421.73,38.9 805.53,-24.27 916.43,-44.62 386,-70.83 735.78,-223.62 1316.3,-158.31 46.62,5.24 206.48,24.48 498.03,104.57 6.32,1.72 12.69,3.49 19.18,5.3 28.07,7.82 55.5,15.71 82.23,23.58 827.13,243.71 1019.4,511.78 1508.32,636.13 33.96,8.62 69.11,16.5 105.22,23.57 53.84,10.45 109.88,19.08 167.58,25.56 72.64,-68.14 114.43,-147.92 114.43,-233.26"
         style="fill:#d0d5ef;fill-opacity:1;fill-rule:nonzero;stroke:none"
         id="path858" />
      <path
         d="m 4784.56,2638.39 c -1304.52,108.97 -2831.37,667.95 -3200.87,1830.19 -10.23,32.25 -19.66,65.09 -28.23,98.52 -58.07,226.51 -77.41,478.35 -54.64,726.89 27.75,-0.86 55.23,-10.08 79.44,-27.59 24.38,-17.58 56.36,-25.83 86.1,-23.63 59.36,4.45 118.77,33.96 177.38,28.12 114.7,-11.35 181.99,-184.77 118.67,-305.89 85.82,84.05 222.33,47.56 275.15,-57.11 52.77,-104.69 30.91,-251.59 -33.37,-358.95 128.14,69.42 280.99,-86.26 239.58,-243.97 106.5,132 312.44,104.95 372.39,-48.98 0.16,0.49 0.32,1.03 0.43,1.51 22.71,71.95 108,80.94 132.64,14.57 28.08,-75.8 45.27,-158.1 50.42,-242.58 33.32,113.85 139.77,196.82 237.82,185.42 98.03,-11.42 175.87,-115.88 173.95,-233.37 201.38,76.29 417.82,-142.08 382.36,-385.78 160.23,-61.67 306.11,-165.55 424.83,-302.38 50.04,-57.7 91.67,-164.79 31.72,-219.76 107.89,-97.82 247.61,-137.63 365.37,-219.27 71.84,-49.77 137.36,-126.39 168.86,-215.96"
         style="fill:#d0d5ef;fill-opacity:1;fill-rule:nonzero;stroke:none"
         id="path860" />
      <path
         d="m 4110.58,7040.79 c -336.48,72.45 -692.82,211.78 -858.47,513.49 -59.48,108.35 -89.48,240.75 -45.75,356.36 58.72,155.25 231.77,237.26 396.03,261.14 203.84,29.65 416.86,-7.69 598.47,-104.9 249.37,-133.49 449.34,-378.52 729.43,-417.97 214.26,-30.16 422.27,68.91 628.65,133.92 206.37,65.02 458.8,86.92 613.95,-63.91 37.09,-36.05 43.28,-84.04 46.86,-103.57 30.27,-164.98 -133.17,-316.41 -192.27,-371.16 -80.67,-74.74 -267.97,-215.94 -854.35,-263.23 -315.52,-25.45 -637.24,-31.77 -1062.55,59.83"
         style="fill:#eaf0fa;fill-opacity:1;fill-rule:nonzero;stroke:none"
         id="path862" />
      <path
         d="M 2820.66,5754.34 H 851.855 c -26.343,45.54 -41.394,98.39 -41.394,154.79 0,171.09 138.73,309.82 309.859,309.82 51.68,0 100.35,-12.71 143.17,-35.08 19.1,245.69 224.52,439.1 475.09,439.1 263.21,0 476.57,-213.36 476.57,-476.56 0,-68.61 -14.51,-133.8 -40.6,-192.75 215.12,-68.23 426.1,-151.73 646.11,-199.32"
         style="fill:#dde1f4;fill-opacity:1;fill-rule:nonzero;stroke:none"
         id="path864" />
      <path
         d="m 7369.94,7690.88 h 1059.49 c 14.17,24.51 22.27,52.94 22.27,83.3 0,92.07 -74.65,166.72 -166.74,166.72 -27.82,0 -54.01,-6.83 -77.04,-18.87 -10.29,132.2 -120.83,236.3 -255.67,236.3 -141.64,0 -256.46,-114.83 -256.46,-256.46 0,-36.92 7.8,-72 21.84,-103.73 -115.76,-36.72 -229.29,-81.65 -347.69,-107.26"
         style="fill:#dde1f4;fill-opacity:1;fill-rule:nonzero;stroke:none"
         id="path866" />
      <path
         d="m 7246.85,6014.21 h 2686.21 c 35.94,62.12 56.48,134.23 56.48,211.2 0,233.42 -189.28,422.71 -422.77,422.71 -70.51,0 -136.92,-17.34 -195.33,-47.87 -26.07,335.21 -306.34,599.11 -648.22,599.11 -359.11,0 -650.22,-291.11 -650.22,-650.22 0,-93.62 19.79,-182.55 55.39,-262.98 -293.5,-93.11 -581.36,-207.02 -881.54,-271.95"
         style="fill:#dde1f4;fill-opacity:1;fill-rule:nonzero;stroke:none"
         id="path868" />
      <path
         d="m 6892.57,5822.66 341.46,-116.38 c 199.53,-68.01 305.3,-285.68 235.47,-484.57 L 6983.52,3837.45 c -863.54,710.13 -1225.79,1451.4 -1013.94,1780.72 161.64,251.26 640.99,237.03 922.99,204.49"
         style="fill:#7cc0cb;fill-opacity:1;fill-rule:nonzero;stroke:none"
         id="path870" />
      <path
         d="m 6883.5,5438.13 v -2563.3 c -207.1,-64.39 -417.4,-117.2 -627.2,-157.79 -275.9,-53.51 -551,-85.71 -817,-95.4 -206.6,-7.61 -427.3,-2.31 -654.7,16.79 -300.6,25.1 -613,74.1 -920.3,148.8 -131,31.91 -261,68.5 -388.9,109.81 -6.8,2.29 -13.7,4.49 -20.6,6.79 -129.5,42.5 -256.8,90 -380.2,142.7 -7.3,3.1 -14.5,6.2 -21.8,9.4 -33.9,14.6 -67.5,29.6 -100.7,45.1 -10.5,4.9 -21,9.81 -31.4,14.9 -33.7,15.9 -67,32.3 -100,49.2 v 2800.2 c 0,131.31 106.5,237.8 237.8,237.8 h 1090.4 c 70.8,0 137.9,-31.49 183.1,-86 l 294.5,-355.09 c 45.2,-54.51 112.3,-86.01 183.1,-86.01 h 1836.1 c 89.4,0 167.4,-49.39 208,-122.5 19,-34.2 29.8,-73.5 29.8,-115.4"
         style="fill:#4d5bb3;fill-opacity:1;fill-rule:nonzero;stroke:none"
         id="path872" />
      <path
         d="m 6594.87,6761.7 475.91,-161.11 c 165.76,-795.37 -178.21,-777.93 -178.21,-777.93 l -3.01,-122.63 c 0.67,-11.84 0.53,-23.71 -0.43,-35.52 -11.52,-141.73 -135.76,-247.28 -277.49,-235.75 v 0 c -0.01,0 -0.01,0 -0.01,0 -141.73,11.52 -247.27,135.76 -235.75,277.48 l 52.94,527.97 -92.13,7.49 v 0 c -77.17,6.28 -134.63,73.92 -128.36,151.09 v 0 c 0.42,5.07 1.06,10.11 1.93,15.13 15.84,91.11 102.55,152.12 193.67,136.27 l 48.14,-8.36 142.8,225.87"
         style="fill:#f9b3c1;fill-opacity:1;fill-rule:nonzero;stroke:none"
         id="path874" />
      <path
         d="m 7224.21,6770.15 c -6.44,54.71 -53.47,101.63 -116.66,123.73 4.93,15.84 56.86,191.97 -47.06,304.95 -57.48,62.5 -133.89,74.43 -172.12,80.39 -239.74,37.41 -449.51,-164.69 -491.39,-205.04 -55.52,-53.49 -40.83,-56.34 -175.4,-208.8 -20.02,-22.69 -50.65,-56.96 -76.45,-110.88 0,0 -27.46,-57.39 -37.76,-125.77 -15.39,-102.28 81.35,-339.98 298.08,-588.33 l 16.32,200.62 -89.05,7.25 -0.15,0.01 c -64.36,5.39 -118.11,55.14 -123.57,119.51 -1.16,13.72 -0.52,27.48 1.83,40.97 15.31,87.93 99.01,146.8 186.94,131.49 27.1,-4.7 47.27,-27.64 48.47,-55.11 l 3.35,-77.63 c 0.3,-6.96 5.38,-13 12.66,-14.23 6.71,-1.14 13.28,2.86 16.28,8.96 l 88.75,180.81 c 0.47,0.97 0.98,1.92 1.52,2.84 12.17,20.94 39.01,28.04 59.95,15.87 73.84,-42.94 284.97,-85.87 419.94,-42.46 72.24,23.24 115.12,74.54 126.96,89.41 21.31,26.77 54.77,68.81 48.56,121.44"
         style="fill:#32427d;fill-opacity:1;fill-rule:nonzero;stroke:none"
         id="path876" />
      <path
         d="m 7431.93,6335.09 c 0,-22.76 6.76,-44.28 18.27,-62.3 15.27,-23.27 39.04,-41.05 67.32,-48.3 l 847.83,-217.72 c 28.52,-7.25 57.05,-10.76 85.08,-10.76 h 2.75 c 180.18,1.51 335.33,148.15 335.33,339.08 0,221.22 -208.7,383.38 -423.16,328.08 l -847.83,-217.72 c -25.03,-6.5 -46.55,-21.02 -61.56,-40.53 -15.27,-19.52 -24.03,-43.8 -24.03,-69.83"
         style="fill:#7cc0cb;fill-opacity:1;fill-rule:nonzero;stroke:none"
         id="path878" />
      <path
         d="m 7450.2,6272.79 c 15.27,-23.27 39.04,-41.05 67.32,-48.3 l 847.83,-217.72 c 28.52,-7.25 57.05,-10.76 85.08,-10.76 h 2.75 l 179.93,305.56 -1182.66,-28.28 -0.25,-0.5"
         style="fill:#5ba0ac;fill-opacity:1;fill-rule:nonzero;stroke:none"
         id="path880" />
      <path
         d="m 8110.27,6332.69 c 0,-186.01 150.8,-336.82 336.83,-336.82 186.02,0 336.82,150.81 336.82,336.82 0,186.03 -150.8,336.83 -336.82,336.83 -186.03,0 -336.83,-150.8 -336.83,-336.83"
         style="fill:#9fd5dd;fill-opacity:1;fill-rule:nonzero;stroke:none"
         id="path882" />
      <path
         d="m 8170.6,6332.69 c 0,-152.7 123.8,-276.49 276.5,-276.49 152.71,0 276.49,123.79 276.49,276.49 0,152.71 -123.78,276.5 -276.49,276.5 -152.7,0 -276.5,-123.79 -276.5,-276.5"
         style="fill:#32427d;fill-opacity:1;fill-rule:nonzero;stroke:none"
         id="path884" />
      <path
         d="m 8630.41,6214.35 c 6.75,0 13.28,3.66 16.63,10.08 12.77,24.44 40.03,89.87 17.51,169.3 -21.83,77.03 -76.97,118.28 -99.68,132.44 -8.74,5.45 -20.34,2.82 -25.83,-5.99 -5.47,-8.79 -2.79,-20.35 5.99,-25.83 19,-11.85 65.18,-46.4 83.45,-110.84 18.84,-66.47 -3.99,-121.26 -14.68,-141.73 -4.79,-9.18 -1.24,-20.5 7.94,-25.29 2.78,-1.45 5.73,-2.14 8.67,-2.14"
         style="fill:#ffffff;fill-opacity:1;fill-rule:nonzero;stroke:none"
         id="path886" />
      <path
         d="m 8507.07,6112.48 c 0.47,0 0.95,0.02 1.43,0.05 61.94,4.64 94.52,51.74 95.88,53.75 5.82,8.58 3.56,20.24 -5,26.04 -8.52,5.79 -20.14,3.6 -25.99,-4.92 -1.04,-1.51 -24.33,-34.23 -67.7,-37.48 -10.33,-0.77 -18.06,-9.78 -17.29,-20.1 0.73,-9.85 8.95,-17.34 18.67,-17.34"
         style="fill:#ffffff;fill-opacity:1;fill-rule:nonzero;stroke:none"
         id="path888" />
      <path
         d="m 6581.1,6335.09 c 0,-22.76 6.76,-44.28 18.27,-62.3 15.27,-23.27 39.04,-41.05 67.32,-48.3 l 847.83,-217.72 c 28.52,-7.25 57.05,-10.76 85.08,-10.76 h 2.75 c 180.18,1.51 335.33,148.15 335.33,339.08 0,221.22 -208.7,383.38 -423.16,328.08 l -847.83,-217.72 c -25.03,-6.5 -46.55,-21.02 -61.56,-40.53 -15.27,-19.52 -24.03,-43.8 -24.03,-69.83"
         style="fill:#7cc0cb;fill-opacity:1;fill-rule:nonzero;stroke:none"
         id="path890" />
      <path
         d="m 6599.37,6272.79 c 15.27,-23.27 39.04,-41.05 67.32,-48.3 l 847.83,-217.72 c 28.52,-7.25 57.05,-10.76 85.08,-10.76 h 2.75 l 179.93,305.56 -1182.66,-28.28 -0.25,-0.5"
         style="fill:#5ba0ac;fill-opacity:1;fill-rule:nonzero;stroke:none"
         id="path892" />
      <path
         d="m 7259.44,6332.69 c 0,-186.01 150.8,-336.82 336.83,-336.82 186.02,0 336.82,150.81 336.82,336.82 0,186.03 -150.8,336.83 -336.82,336.83 -186.03,0 -336.83,-150.8 -336.83,-336.83"
         style="fill:#9fd5dd;fill-opacity:1;fill-rule:nonzero;stroke:none"
         id="path894" />
      <path
         d="m 7319.77,6332.69 c 0,-152.7 123.8,-276.49 276.5,-276.49 152.71,0 276.49,123.79 276.49,276.49 0,152.71 -123.78,276.5 -276.49,276.5 -152.7,0 -276.5,-123.79 -276.5,-276.5"
         style="fill:#32427d;fill-opacity:1;fill-rule:nonzero;stroke:none"
         id="path896" />
      <path
         d="m 7779.58,6214.35 c 6.75,0 13.28,3.66 16.63,10.08 12.77,24.44 40.03,89.87 17.51,169.3 -21.83,77.03 -76.97,118.28 -99.68,132.44 -8.74,5.45 -20.34,2.82 -25.83,-5.99 -5.47,-8.79 -2.79,-20.35 5.99,-25.83 19,-11.85 65.18,-46.4 83.45,-110.84 18.83,-66.47 -3.99,-121.26 -14.68,-141.73 -4.79,-9.18 -1.24,-20.5 7.94,-25.29 2.78,-1.45 5.73,-2.14 8.67,-2.14"
         style="fill:#ffffff;fill-opacity:1;fill-rule:nonzero;stroke:none"
         id="path898" />
      <path
         d="m 7656.24,6112.48 c 0.47,0 0.95,0.02 1.43,0.05 61.94,4.64 94.52,51.74 95.88,53.75 5.82,8.58 3.57,20.24 -5,26.04 -8.52,5.79 -20.14,3.6 -25.99,-4.92 -1.04,-1.51 -24.33,-34.23 -67.7,-37.48 -10.33,-0.77 -18.06,-9.78 -17.29,-20.1 0.73,-9.85 8.95,-17.34 18.67,-17.34"
         style="fill:#ffffff;fill-opacity:1;fill-rule:nonzero;stroke:none"
         id="path900" />
      <path
         d="m 6747.7,6195.53 -133.62,-292.74 -422.88,10.34 c 0,0 272.6,672.6 708.5,592.1 0,0 -214.1,-103.5 -152,-309.7"
         style="fill:#f9b3c1;fill-opacity:1;fill-rule:nonzero;stroke:none"
         id="path902" />
      <path
         d="m 6747.7,6195.53 -133.62,-292.74 -422.88,10.34 275.53,39.15 c 82.79,11.77 154.08,64.46 189.6,140.16 v 0 c 26.64,56.78 41.82,117.98 48.03,180.39 19.4,195.17 195.34,232.4 195.34,232.4 0,0 -214.1,-103.5 -152,-309.7"
         style="fill:#ef8997;fill-opacity:1;fill-rule:nonzero;stroke:none"
         id="path904" />
      <path
         d="m 6285.42,6371.38 c -0.13,0.47 -11.68,48.11 12.85,74.87 16.3,17.75 45.73,23.35 87.57,16.66 l 4.11,25.76 c -51.09,8.13 -88.45,-0.23 -110.99,-24.92 -33.98,-37.26 -19.44,-96.28 -18.8,-98.78 l 25.26,6.41"
         style="fill:#ef8997;fill-opacity:1;fill-rule:nonzero;stroke:none"
         id="path906" />
      <path
         d="m 6889.66,5698.42 c -100.55,16.71 -182.16,67.88 -249.12,144.74 76.33,-32.54 252.03,-20.5 252.03,-20.5 l -2.91,-124.24"
         style="fill:#ef8997;fill-opacity:1;fill-rule:nonzero;stroke:none"
         id="path908" />
      <path
         d="m 6919.89,6004.26 6.54,22.56 c -29.04,8.4 -58.84,15.24 -88.57,20.32 -29.27,5.01 -59.16,8.43 -88.81,10.16 l -1.37,-23.45 c 28.78,-1.68 57.8,-4.99 86.22,-9.85 28.87,-4.93 57.8,-11.57 85.99,-19.74"
         style="fill:#ef8997;fill-opacity:1;fill-rule:nonzero;stroke:none"
         id="path910" />
      <path
         d="m 6390.89,6230.48 -19.78,15.31 c 163.8,211.69 347.35,305.68 530.87,271.74 l -4.55,-24.59 c -219.52,40.56 -396.58,-120.34 -506.54,-262.46"
         style="fill:#ef8997;fill-opacity:1;fill-rule:nonzero;stroke:none"
         id="path912" />
      <path
         d="m 6983.5,5438.13 v -2531.2 c -33.2,-11 -66.6,-21.7 -100,-32.1 -207.1,-64.39 -417.4,-117.2 -627.2,-157.79 -275.9,-53.51 -551,-85.71 -817,-95.4 -206.6,-7.61 -427.3,-2.31 -654.7,16.79 -300.6,25.1 -613,74.1 -920.3,148.8 -131,31.91 -261,68.5 -388.9,109.81 -6.8,2.29 -13.7,4.49 -20.6,6.79 -129.5,42.5 -256.8,90 -380.2,142.7 -7.3,3.1 -14.5,6.2 -21.8,9.4 -33.9,14.6 -67.5,29.6 -100.7,45.1 -10.5,4.9 -21,9.81 -31.4,14.9 v 2849.4 c 0,131.31 106.5,237.8 237.8,237.8 h 1090.4 c 70.8,0 137.9,-31.49 183.1,-86 l 294.5,-355.09 c 45.2,-54.51 112.3,-86.01 183.1,-86.01 h 1836.1 c 51.7,0 99.5,-16.49 138.5,-44.6 60.1,-43.09 99.3,-113.6 99.3,-193.3"
         style="fill:#6b75c2;fill-opacity:1;fill-rule:nonzero;stroke:none"
         id="path914" />
      <path
         d="M 6462.8,4988.17 H 5241.37 c -63.9,0 -115.71,51.81 -115.71,115.71 v 109.29 c 0,63.91 51.81,115.71 115.71,115.71 H 6462.8 c 63.91,0 115.72,-51.8 115.72,-115.71 v -109.29 c 0,-63.9 -51.81,-115.71 -115.72,-115.71"
         style="fill:#4d5bb3;fill-opacity:1;fill-rule:nonzero;stroke:none"
         id="path916" />
      <path
         d="M 4659.59,2972.81 H 3438.16 c -63.91,0 -115.71,51.8 -115.71,115.71 v 109.29 c 0,63.9 51.8,115.71 115.71,115.71 h 1221.43 c 63.91,0 115.71,-51.81 115.71,-115.71 v -109.29 c 0,-63.91 -51.8,-115.71 -115.71,-115.71"
         style="fill:#4d5bb3;fill-opacity:1;fill-rule:nonzero;stroke:none"
         id="path918" />
      <path
         d="M 3104.95,5817.45 H 4397.09"
         style="fill:none;stroke:#ffffff;stroke-width:100;stroke-linecap:round;stroke-linejoin:round;stroke-miterlimit:10;stroke-dasharray:none;stroke-opacity:1"
         id="path920" />
      <path
         d="m 4952.09,5676.02 1287.33,409.67 422.88,-192.01 -357.56,-217.66 H 4952.09"
         style="fill:#7cc0cb;fill-opacity:1;fill-rule:nonzero;stroke:none"
         id="path922" />
      <path
         d="m 6881.05,4986.26 c 0,0 -679.83,-212.87 0.69,-202.86 0,0 -695.92,-115.87 0.54,-157.45 0,0 -672.63,-106.57 0.53,-158.83 0,0 -663.4,-115.99 0.5,-145.43 l 30.04,0.63 c 61.59,1.31 116.45,39.13 139.48,96.27 40.31,99.97 80.86,270.6 9.88,468.77 -22.87,63.85 -85.81,104.5 -153.51,100.54 l -28.15,-1.64"
         style="fill:#f9b3c1;fill-opacity:1;fill-rule:nonzero;stroke:none"
         id="path924" />
      <path
         d="M 6662.3,5893.68 4952.09,5676.02 h 1352.65 z"
         style="fill:#5ba0ac;fill-opacity:1;fill-rule:nonzero;stroke:none"
         id="path926" />
      <path
         d="m 6581.68,4822.51 300.06,-39.11 c 0,0 -277.78,-51.01 -300.06,39.11"
         style="fill:#ef8997;fill-opacity:1;fill-rule:nonzero;stroke:none"
         id="path928" />
      <path
         d="m 6572.98,4687.94 309.3,-61.99 c 0,0 -295.71,-66.29 -309.3,61.99"
         style="fill:#ef8997;fill-opacity:1;fill-rule:nonzero;stroke:none"
         id="path930" />
      <path
         d="m 6583.69,4533.41 299.12,-66.29 c 0,0 -316.82,-38.53 -299.12,66.29"
         style="fill:#ef8997;fill-opacity:1;fill-rule:nonzero;stroke:none"
         id="path932" />
      <path
         d="m 6588.15,4372.48 388.21,-35.15 c 0,0 -362.69,-108.04 -388.21,35.15"
         style="fill:#ef8997;fill-opacity:1;fill-rule:nonzero;stroke:none"
         id="path934" />
    </g>
  </g>
</svg>